<?xml version="1.0" encoding="UTF-8"?>
<svg id="Layer_1" xmlns="http://www.w3.org/2000/svg" width="522.6" height="521.7" version="1.1" viewBox="0 0 522.6 521.7">
  <!-- Generator: Adobe Illustrator 29.5.1, SVG Export Plug-In . SVG Version: 2.1.0 Build 141)  -->
  <path d="M256.5,58.5l1.6-1.5c7.8-7.1,12.3-17.2,12.3-27.8s-4.5-20.7-12.3-27.8L256.5,0l-1.6,1.5c-7.8,7.1-12.3,17.2-12.3,27.8s4.5,20.7,12.3,27.8l1.6,1.5Z" fill="#b4ff7c"/>
  <path d="M163.4,100l2.2.2.5-2.1c2.2-10.3,0-21.2-6.1-29.8-6.1-8.6-15.7-14.2-26.2-15.5l-2.2-.3-.5,2.1c-2.2,10.3,0,21.2,6.1,29.8,6.1,8.6,15.7,14.2,26.2,15.5Z" fill="#b4ff7c"/>
  <path d="M55.3,145.2c5.8,3.5,12.4,5.3,19.2,5.3s7.4-.6,11-1.6l2.1-.6-.4-2.1c-2.1-10.4-8.5-19.4-17.6-24.8-9-5.4-20.1-6.7-30.2-3.7l-2.1.6.4,2.1c2.1,10.4,8.5,19.4,17.6,24.8Z" fill="#b4ff7c"/>
  <path d="M25.5,210c3.6.8,7.3,1.1,11,.8h0c6.8-.5,13.3-2.8,18.8-6.7l1.8-1.3-1.1-1.9c-5.2-9.2-14.1-15.8-24.4-18.1-10.3-2.3-21.2-.1-29.8,5.9L0,190l1.1,1.9c5.2,9.2,14.1,15.8,24.4,18.1Z" fill="#b4ff7c"/>
  <path d="M66.3,275.6l-1.7-1.4c-8.1-6.8-18.7-9.9-29.2-8.4-10.5,1.4-19.9,7.2-25.9,16l-1.2,1.8,1.7,1.4c7.2,6,16.2,9.1,25.5,8.8,1.2,0,2.5-.2,3.7-.3,10.5-1.4,19.9-7.2,25.9-16l1.2-1.8Z" fill="#b4ff7c"/>
  <path d="M141.4,327.4c-9,5.5-15.4,14.5-17.5,24.9l-.4,2.1,2.1.6c5.8,1.7,12,2,17.9.9h0c4.3-.8,8.5-2.4,12.3-4.7,9-5.4,15.4-14.5,17.5-24.9l.4-2.1-2.1-.6c-10.1-3-21.2-1.6-30.2,3.8Z" fill="#b4ff7c"/>
  <path d="M251.6,176.6l-1.7-.8-1,1.6c-6.7,11.1-8.4,24.6-4.7,37,3.7,12.4,12.5,22.8,24.2,28.4l1.7.8,1-1.6c6.7-11.1,8.4-24.6,4.7-37-3.7-12.4-12.5-22.8-24.2-28.4Z" fill="#b4ff7c"/>
  <path d="M267,87.4l-1-1.6-1.7.8c-11.4,5.6-20,15.9-23.5,28.1-3.5,12.2-1.7,25.4,5,36.3l1,1.6,1.7-.8c11.4-5.6,20-15.9,23.5-28.1,3.5-12.2,1.7-25.4-5-36.3Z" fill="#b4ff7c"/>
  <path d="M201.4,272.7c5.9-.5,11.8-1.8,17.3-3.9l2.1-.8-.7-1.9c-4.5-12.8-15.1-23.4-29-28.9-13.8-5.5-30.2-5.5-44.3-.1l-2.1.8.7,1.9c4.5,12.8,15.1,23.4,29,28.9,8.4,3.3,17.7,4.7,27,4h0Z" fill="#b4ff7c"/>
  <path d="M122.5,307.7c.7,0,1.5,0,2.2-.2,13-1.3,25-8.1,32.8-18.6l1.3-1.7-1.6-1.5c-9.8-8.8-22.5-13.1-35.8-11.8-13,1.3-25,8.1-32.8,18.6l-1.3,1.7,1.6,1.5c9.2,8.3,21.2,12.6,33.6,11.9h0Z" fill="#b4ff7c"/>
  <path d="M140.3,205.2l2-.9-.7-2c-4.4-12.3-13.9-22.3-26-27.3-9.3-3.9-19.3-4.6-29.1-2.2-2.9.7-5.8,1.8-8.6,3.1l-2,.9.7,2c4.4,12.3,13.9,22.3,26,27.3,9.3,3.9,19.3,4.6,29.1,2.2,3-.7,5.8-1.8,8.6-3.1Z" fill="#b4ff7c"/>
  <path d="M117.7,245.5l1.5-1.4-1.3-1.7c-7.8-10.1-19.6-16.5-32.3-17.5-9.8-.8-19.3,1.5-27.6,6.7-2.5,1.6-4.9,3.4-7.1,5.4l-1.5,1.4,1.3,1.7c7.8,10.1,19.6,16.5,32.3,17.5,9.8.8,19.3-1.5,27.6-6.7,2.5-1.6,4.9-3.4,7.1-5.4Z" fill="#b4ff7c"/>
  <path d="M116,139.6c8.4,7.5,19.3,11.7,30.6,11.7h0c1.7,0,3.5,0,5.3-.3l2.2-.2v-2.2c-.2-13.1-5.8-25.6-15.6-34.3-8.4-7.5-19.3-11.7-30.6-11.8-1.8,0-3.5,0-5.3.3l-2.2.2v2.2c.1,13.1,5.8,25.6,15.6,34.3Z" fill="#b4ff7c"/>
  <path d="M214.9,109.5l1.8,1.1,1.3-1.7c8-10,11.3-22.9,9.1-35.4-2.3-12.5-9.9-23.5-21-30.3l-1.8-1.1-1.3,1.6c-8,10-11.3,22.9-9.1,35.4,2.3,12.5,9.9,23.5,21,30.3Z" fill="#b4ff7c"/>
  <path d="M163.3,178.2l-1.9.2v1.6c.4,10.9,6.3,21.3,16.3,28.3,9.6,6.8,21.8,9.9,34.4,8.9h0c.6,0,1.2-.1,1.7-.2l1.9-.2v-1.6c-.4-11-6.3-21.3-16.3-28.3-10.1-7.1-23.1-10.2-36.2-8.7Z" fill="#b4ff7c"/>
  <path d="M176.3,118.2l-1.8-.2-.3,1.5c-1.9,10.1,1.4,20.7,9,29.2,7.4,8.2,17.9,13.6,29.6,15.2h0c.5,0,1.1.1,1.6.2l1.8.2.3-1.5c1.9-10.1-1.4-20.7-9-29.2-7.7-8.5-19-14-31.2-15.4Z" fill="#b4ff7c"/>
  <path d="M359.1,100l-2.1.2-.5-2.1c-2.2-10.3,0-21.2,6.1-29.8,6.1-8.6,15.7-14.2,26.2-15.5l2.2-.3.5,2.1c2.2,10.3,0,21.2-6.1,29.8-6.1,8.6-15.7,14.2-26.2,15.5Z" fill="#b4ff7c"/>
  <path d="M467.3,145.2c-5.8,3.5-12.4,5.3-19.2,5.3s-7.4-.6-11-1.6l-2.1-.6.4-2.1c2.1-10.4,8.5-19.4,17.6-24.8,9-5.4,20.1-6.7,30.2-3.7l2.1.6-.4,2.1c-2.1,10.4-8.5,19.4-17.6,24.8Z" fill="#b4ff7c"/>
  <path d="M497,210c-3.6.8-7.3,1.1-11,.8h0c-6.8-.5-13.3-2.8-18.9-6.7l-1.8-1.3,1.1-1.9c5.2-9.2,14.1-15.8,24.4-18.1,10.3-2.3,21.2-.1,29.8,5.9l1.8,1.2-1.1,1.9c-5.2,9.2-14.1,15.8-24.4,18.1Z" fill="#b4ff7c"/>
  <path d="M456.2,275.6l1.7-1.4c8.1-6.8,18.7-9.9,29.2-8.4,10.5,1.4,19.9,7.2,25.9,16l1.2,1.8-1.7,1.4c-7.2,6-16.2,9.1-25.5,8.8-1.2,0-2.5-.2-3.7-.3-10.5-1.4-19.9-7.2-25.9-16l-1.2-1.8Z" fill="#b4ff7c"/>
  <path d="M381.1,327.4c9,5.5,15.4,14.5,17.4,24.9l.4,2.1-2.1.6c-5.8,1.7-12,2-17.9.9h0c-4.3-.8-8.5-2.4-12.3-4.7-9.1-5.4-15.4-14.5-17.5-24.9l-.4-2.1,2.1-.6c10.1-3,21.2-1.6,30.2,3.8Z" fill="#b4ff7c"/>
  <path d="M321.1,272.7c-5.9-.5-11.7-1.8-17.3-3.9l-2.1-.8.7-1.9c4.5-12.8,15.1-23.4,29-28.9,13.8-5.5,30.2-5.5,44.2-.1l2.1.8-.7,1.9c-4.5,12.8-15.1,23.4-29,28.9-8.4,3.3-17.7,4.7-27,4h0Z" fill="#b4ff7c"/>
  <path d="M400,307.7c-.7,0-1.5,0-2.2-.2-13-1.3-25-8.1-32.8-18.6l-1.3-1.7,1.6-1.5c9.8-8.8,22.5-13.1,35.8-11.8,13,1.3,25,8.1,32.8,18.6l1.3,1.7-1.6,1.5c-9.2,8.3-21.1,12.6-33.6,11.9t0,0Z" fill="#b4ff7c"/>
  <path d="M382.2,205.2l-2-.9.7-2c4.4-12.3,13.9-22.3,26-27.3,9.3-3.9,19.3-4.6,29.1-2.2,3,.7,5.8,1.8,8.6,3.1l2,.9-.7,2c-4.4,12.3-13.9,22.3-26,27.3-9.3,3.9-19.3,4.6-29,2.2-3-.7-5.8-1.8-8.6-3.1Z" fill="#b4ff7c"/>
  <path d="M404.8,245.5l-1.5-1.4,1.3-1.7c7.8-10.1,19.6-16.5,32.3-17.5,9.8-.8,19.3,1.5,27.6,6.7,2.5,1.6,4.9,3.4,7.1,5.4l1.5,1.4-1.3,1.7c-7.8,10.1-19.6,16.5-32.3,17.5-9.8.8-19.3-1.5-27.6-6.7-2.5-1.6-4.9-3.4-7.1-5.4Z" fill="#b4ff7c"/>
  <path d="M406.5,139.6c-8.4,7.5-19.3,11.7-30.6,11.7h0c-1.8,0-3.5,0-5.3-.3l-2.2-.2v-2.2c.2-13.1,5.8-25.6,15.6-34.3,8.4-7.5,19.3-11.7,30.6-11.8,1.8,0,3.5,0,5.3.3l2.2.2v2.2c-.2,13.1-5.8,25.6-15.6,34.3Z" fill="#b4ff7c"/>
  <path d="M307.6,109.5l-1.8,1.1-1.3-1.7c-8-10-11.3-22.9-9.1-35.4,2.3-12.5,9.9-23.5,21-30.3l1.8-1.1,1.3,1.6c8,10,11.3,22.9,9.1,35.4-2.3,12.5-9.9,23.5-21,30.3Z" fill="#b4ff7c"/>
  <path d="M359.3,178.2l1.9.2v1.6c-.4,10.9-6.3,21.3-16.3,28.3-9.6,6.8-21.8,9.9-34.4,8.9h0c-.6,0-1.2-.1-1.8-.2l-1.9-.2v-1.6c.4-11,6.3-21.3,16.3-28.3,10-7.1,23.1-10.2,36.2-8.7Z" fill="#b4ff7c"/>
  <path d="M337.5,124.1h2s.1,1.7.1,1.7c.8,11.2-4.2,22.3-13.6,30.4-9.1,7.9-21.2,12.4-34.1,12.6h0c-.6,0-1.2,0-1.8,0h-2s-.1-1.7-.1-1.7c-.7-11.2,4.2-22.3,13.6-30.5,9.5-8.2,22.4-12.7,35.9-12.6Z" fill="#b4ff7c"/>
  <path d="M331,292.7c-1,.2-2.1.5-3.2,1-10.1,3.3-40.6,15.3-66.5,44.7-26-29.4-56.4-41.4-66.5-44.7-1.2-.4-2.3-.8-3.2-1-4.4-1.6-10.1,7.5-4.6,11.3,18.8,12.4,37.1,27.6,42.8,57.1,3.5,18.1,2.9,42.4,2.4,65.6-.8,39.7-7.9,78.5-40.7,93.6,9.1,2.4,35.6,4.6,69.8-18.6,34.1,23.2,60.6,21,69.8,18.6-32.8-15.1-39.9-53.8-40.7-93.6-.5-23.2-1.1-47.5,2.4-65.6,5.7-29.5,24-44.7,42.9-57.1,5.5-3.8-.3-12.9-4.6-11.3Z" fill="#b4ff7c"/>
  <circle cx="261.3" cy="286.6" r="19" fill="#b4ff7c"/>
</svg>