<svg width="401" height="162" viewBox="0 0 401 162" fill="none" xmlns="http://www.w3.org/2000/svg">
<path d="M91.8864 49.5813L80.358 53.9288L85.3455 69.5669L91.8864 49.5813ZM57.8964 48.9568L74.9158 36.8516L68.4473 16.627L85.4297 29.3734L102.454 17.2398L95.9128 37.2254L112.895 49.9718L91.8864 49.5813L78.9053 49.3473L57.8964 48.9568Z" fill="#04DA8D"/>
<path d="M31.0345 132.352L24.8295 121.708L10.2392 129.228L31.0345 132.352ZM25.9951 98.7322L40.7633 113.5L59.6297 103.757L49.8864 122.623L64.6833 137.391L43.8881 134.267L34.1448 153.133L31.0345 132.352L29.1054 119.513L25.9951 98.7322Z" fill="#04DA8D"/>
<path d="M60.9138 100.79L51.0561 93.3993L40.5415 106.004L60.9138 100.79ZM43.19 71.7806L62.5406 79.6387L76.1292 63.3223L74.4947 84.4931L93.8717 92.3397L73.4994 97.5528L71.8649 118.724L60.9138 100.79L54.1411 89.7138L43.19 71.7806Z" fill="#04DA8D"/>
<path d="M132.604 68.7671L122.746 61.3758L112.232 73.9802L132.604 68.7671ZM114.88 39.7572L134.231 47.6152L147.82 31.2988L146.185 52.4696L165.562 60.3163L145.19 65.5294L143.555 86.7002L132.604 68.7671L125.831 57.6903L114.88 39.7572Z" fill="#04DA8D"/>
<path d="M214.444 109.492L204.586 102.1L194.072 114.705L214.444 109.492ZM196.72 80.4818L216.071 88.3398L229.659 72.0234L228.025 93.1943L247.402 101.041L227.03 106.254L225.395 127.425L214.444 109.492L207.671 98.415L196.72 80.4818Z" fill="#04DA8D"/>
<path d="M230.848 63.0266L219.727 57.7217L211.901 72.15L230.848 63.0266ZM207.757 38.0758L228.277 41.9687L238.386 23.2955L240.953 44.3736L261.496 48.2501L242.549 57.3736L245.116 78.4516L230.848 63.0266L222.026 53.5008L207.757 38.0758Z" fill="#04DA8D"/>
<path d="M274.655 121.571L262.496 123.558L264.3 139.873L274.655 121.571ZM241.457 114.253L260.53 105.743L258.178 84.64L272.312 100.486L291.395 91.9494L281.04 110.252L295.174 126.098L274.655 121.571L261.976 118.78L241.457 114.253Z" fill="#04DA8D"/>
<path d="M324.863 112.448L313.506 117.224L319.075 132.664L324.863 112.448ZM290.874 113.096L307.428 100.362L300.207 80.3941L317.654 92.4957L334.212 79.7331L328.424 99.9496L345.872 112.051L324.863 112.448L311.883 112.7L290.874 113.096Z" fill="#04DA8D"/>
<path d="M370.309 94.4151L358.419 97.6473L361.898 113.689L370.309 94.4151ZM336.532 90.5633L354.625 80.1302L350.107 59.3825L365.802 73.6851L383.901 63.2242L375.491 82.4978L391.185 96.8004L370.309 94.4151L357.408 92.9486L336.532 90.5633Z" fill="#04DA8D"/>
<path d="M289.672 65.9974L278.946 72.0598L286.271 86.7491L289.672 65.9974ZM255.988 70.5878L270.952 56.018L261.461 37.0232L280.196 47.0173L295.16 32.4187L291.758 53.1704L310.493 63.1645L289.672 65.9974L276.809 67.755L255.988 70.5878Z" fill="#04DA8D"/>
<path d="M38.9378 64.5706L26.6186 64.7739L26.0379 81.1778L38.9378 64.5706ZM7.15128 52.5156L27.2568 46.8619L27.9906 25.6407L39.6772 43.3692L59.7966 37.6903L46.8967 54.2975L58.5832 72.026L38.9378 64.5706L26.7967 59.971L7.15128 52.5156Z" fill="#04DA8D"/>
<path d="M111.909 118.686L99.7726 116.564L96.1115 132.565L111.909 118.686ZM82.9637 100.858L103.774 99.0935L108.494 78.3907L116.63 98.0037L137.459 96.2174L121.661 110.097L129.798 129.709L111.909 118.686L100.852 111.881L82.9637 100.858Z" fill="#04DA8D"/>
<path d="M160.836 127.534L148.549 126.622L146.485 142.906L160.836 127.534ZM130.271 112.651L150.806 108.841L153.458 87.7733L163.491 106.487L184.042 102.653L169.692 118.024L179.725 136.738L160.836 127.534L149.161 121.854L130.271 112.651Z" fill="#04DA8D"/>
<path d="M178.918 86.4445L166.631 85.5317L164.567 101.816L178.918 86.4445ZM148.353 71.5613L168.888 67.751L171.54 46.6834L181.573 65.3971L202.124 61.563L187.774 76.9341L197.807 95.6478L178.918 86.4445L167.243 80.7646L148.353 71.5613Z" fill="#04DA8D"/>
</svg>
