<svg xmlns="http://www.w3.org/2000/svg" viewBox="0 0 1024 1024" id="bot">
  <path d="M251.756 128.108C224.351 121.676 225.729 83.1084 255.177 80.3435C279.931 77.4368 293.321 118.501 261.261 128.108L261.261 153.223L289.143 153.216C295.491 153.215 301.978 152.907 308.277 153.771C331.55 156.962 353.225 172.668 361.013 195.293C365.002 195.372 368.525 195.934 372.409 196.776L372.409 169.079C350.201 157.712 368.503 129.623 386.596 140.837C397.954 147.876 395.045 166.322 382.013 169.079C382.016 180.099 381.853 191.136 382.013 202.152L382.411 202.409C410.252 220.63 400.067 262.552 365.367 269.129C361.613 284.831 358.622 294.521 346.702 306.318C328.919 323.918 314.027 324.995 291.377 324.911C290.485 326.91 289.515 328.76 288.32 330.596C301.002 336.93 311.177 345.421 317.48 358.31C324.283 372.222 328.593 410.587 315.929 423.109C306.791 432.144 295.381 430.448 283.536 430.449L258.439 430.439L228.12 430.454C200.996 430.457 188.636 428.039 188.677 396.18C188.695 382.422 188.657 369.946 195.042 357.355C200.53 346.531 211.865 334.483 223.665 330.596C222.76 328.677 221.75 326.799 220.783 324.911C215.365 324.939 209.817 325.209 204.415 324.834C174.86 322.78 150.352 298.234 146.53 269.129C112.505 261.786 102.933 222.92 129.678 202.152L129.678 169.079C125.587 167.089 122.183 164.613 120.075 160.496C110.399 141.594 139.631 129.255 147.805 147.222C151.63 155.631 147.416 164.767 139.187 168.352L139.187 196.776C143.302 195.762 146.901 195.176 151.155 195.293C156.504 180.673 167.39 168.467 181.023 161.077C195.895 153.017 208.046 153.218 224.218 153.215L251.756 153.223L251.756 128.108ZM255.177 90.0961C236.475 91.9997 237.134 119.292 258.439 118.769C277.787 114.03 272.026 88.1064 255.177 90.0961ZM133.952 148.062C125.598 149.092 125.861 158.228 133.952 160.332C141.918 158.403 141.427 148.13 133.952 148.062ZM377.1 148.062C369.335 150.378 370.291 160.571 378.984 160.332C386.67 157.696 385.189 147.507 377.1 148.062ZM210.32 162.581C194.735 163.493 180.494 170.188 170.073 181.869C154.182 199.682 155.716 217.205 155.731 239.135C155.736 247.442 155.337 255.926 155.847 264.204C157.375 289.016 175.306 309.722 199.566 314.711C205.666 315.966 211.914 315.704 218.105 315.696L302.49 315.682C318.296 314.52 332.033 308.658 342.565 296.521C358.278 278.413 356.329 262.543 356.302 240.593C356.292 232.289 356.756 223.749 356.115 215.484C354.169 190.377 335.671 169.16 311.124 163.891C302.646 162.072 293.71 162.569 285.086 162.574L225.637 162.577C220.582 162.576 215.354 162.286 210.32 162.581ZM146.53 204.92C124.643 208.635 116.208 236.349 132.297 251.98C136.513 255.783 140.778 258.067 146.24 259.582C146.264 245.951 146.029 232.294 146.245 218.666C146.286 216.065 148.637 204.607 146.53 204.92ZM364.113 204.92C367.025 218.672 366.454 244.454 365.992 259.582C372.936 257.223 374.657 255.65 380.653 251.98C386.231 243.956 389.846 237.634 388.012 227.466C385.824 215.338 376.087 206.571 364.113 204.92ZM233.691 324.911L231.603 324.989C231.515 326.006 232.487 327.026 233.123 327.779C243.237 339.769 260.729 341.56 273.423 332.701C276.375 330.493 278.683 328.204 280.416 324.911C265.388 324.353 248.767 324.737 233.691 324.911ZM229.532 338.228C202.756 350.418 198.308 368.036 198.262 393.84C198.22 417.425 200.939 420.847 222.932 420.748L292.931 420.748C312.427 420.921 313.867 413.322 313.841 395.871C313.8 369.217 310.222 349.984 281.799 338.228C268.154 349.236 249.268 351.236 234.474 341.379C233.01 340.404 231.175 338.777 229.532 338.228Z" transform="scale(2)" fill="#34a853" class="color000000 svgShape"></path>
  <path d="M302.49 248.723C274.871 249.807 272.825 210.056 298.335 209.331 302.655 207.632 308.632 210.03 312.165 212.5 327.155 222.979 321.369 245.717 302.49 248.723ZM298.335 218.794C284.662 220.751 287.84 240.375 302.49 238.704 316.148 235.042 311.094 214.773 298.335 218.794ZM213.191 244.618C192.224 247.001 186.199 212.52 210.32 209.331 233.895 208.381 237.05 241.715 213.191 244.618ZM210.32 218.794C200.359 223.051 202.88 236.478 213.191 235.114 224.685 231.616 221.092 217.404 210.32 218.794ZM292.931 274.541C281.161 280.537 262.561 282.561 249.497 281.358 245.318 280.973 202.318 274.621 218.268 264.528 221.302 264.261 230.873 268.401 234.733 269.347 249.305 272.918 264.368 272.955 278.875 268.971 282.069 268.094 289.761 264.772 292.546 265.254 297.983 266.195 297.105 272.063 292.931 274.541ZM237.652 402.552C228.449 402.603 215.568 404.41 213.457 392.396 211.603 381.846 211.986 368.35 225.167 366.5 240.374 365.926 249.177 366.695 249.256 384.366 249.296 393.303 247.78 400.876 237.652 402.552ZM225.167 375.963C220.659 378.298 221.519 388.579 223.072 391.362 224.871 394.586 233.767 393.409 236.782 393.207 242.441 390.787 239.974 377.067 237.646 376.356 234.951 375.533 228.193 375.777 225.167 375.963ZM287.044 402.552C270.998 403.355 263.159 402.133 263.294 384.074 263.368 374.239 265.223 367.704 276.162 366.5 292.276 366.385 299.257 366.372 299.359 384.838 299.41 394.103 297.815 401.77 287.044 402.552ZM276.162 375.963C268.5 378.018 273.084 392.302 274.607 392.818 277.296 393.729 283.961 393.302 287.044 393.207 291.909 391.399 291.485 377.866 288.39 376.571 285.364 375.305 279.526 375.919 276.162 375.963Z" transform="scale(2)" fill="#34a853" class="color000000 svgShape"></path>
</svg>
